<?xml version="1.0" encoding="UTF-8" standalone="no"?>
<!-- Generator: Adobe Illustrator 19.0.0, SVG Export Plug-In . SVG Version: 6.00 Build 0)  -->

<svg
   xmlns:dc="http://purl.org/dc/elements/1.1/"
   xmlns:cc="http://creativecommons.org/ns#"
   xmlns:rdf="http://www.w3.org/1999/02/22-rdf-syntax-ns#"
   xmlns:svg="http://www.w3.org/2000/svg"
   xmlns="http://www.w3.org/2000/svg"
   xmlns:sodipodi="http://sodipodi.sourceforge.net/DTD/sodipodi-0.dtd"
   xmlns:inkscape="http://www.inkscape.org/namespaces/inkscape"
   version="1.1"
   id="Layer_1"
   x="0px"
   y="0px"
   viewBox="0 0 382 382"
   style="enable-background:new 0 0 382 382;"
   xml:space="preserve"
   sodipodi:docname="linkedin-svgrepo-com.svg"
   inkscape:version="0.92.5 (2060ec1f9f, 2020-04-08)"><metadata
   id="metadata39"><rdf:RDF><cc:Work
       rdf:about=""><dc:format>image/svg+xml</dc:format><dc:type
         rdf:resource="http://purl.org/dc/dcmitype/StillImage" /></cc:Work></rdf:RDF></metadata><defs
   id="defs37" /><sodipodi:namedview
   pagecolor="#ffffff"
   bordercolor="#666666"
   borderopacity="1"
   objecttolerance="10"
   gridtolerance="10"
   guidetolerance="10"
   inkscape:pageopacity="0"
   inkscape:pageshadow="2"
   inkscape:window-width="1864"
   inkscape:window-height="1016"
   id="namedview35"
   showgrid="false"
   inkscape:zoom="1.7474052"
   inkscape:cx="200.88761"
   inkscape:cy="192.08012"
   inkscape:window-x="56"
   inkscape:window-y="27"
   inkscape:window-maximized="1"
   inkscape:current-layer="layer2" />

<g
   id="g4">
</g>
<g
   id="g6">
</g>
<g
   id="g8">
</g>
<g
   id="g10">
</g>
<g
   id="g12">
</g>
<g
   id="g14">
</g>
<g
   id="g16">
</g>
<g
   id="g18">
</g>
<g
   id="g20">
</g>
<g
   id="g22">
</g>
<g
   id="g24">
</g>
<g
   id="g26">
</g>
<g
   id="g28">
</g>
<g
   id="g30">
</g>
<g
   id="g32">
</g>
<g
   inkscape:groupmode="layer"
   id="layer1"
   inkscape:label="Layer 1"><rect
     id="rect41"
     width="338.2966"
     height="328.58475"
     x="22.661016"
     y="26.70763"
     style="fill:#ffffff;fill-opacity:1" /></g><g
   inkscape:groupmode="layer"
   id="layer2"
   inkscape:label="Layer 2"><path
     inkscape:connector-curvature="0"
     style="fill:#0077b7"
     d="M 347.445,0 H 34.555 C 15.471,0 0,15.471 0,34.555 V 347.444 C 0,366.529 15.471,382 34.555,382 H 347.444 C 366.529,382 382,366.529 382,347.444 V 34.555 C 382,15.471 366.529,0 347.445,0 Z M 118.207,329.844 c 0,5.554 -4.502,10.056 -10.056,10.056 H 65.345 c -5.554,0 -10.056,-4.502 -10.056,-10.056 V 150.403 c 0,-5.554 4.502,-10.056 10.056,-10.056 h 42.806 c 5.554,0 10.056,4.502 10.056,10.056 z M 86.748,123.432 c -22.459,0 -40.666,-18.207 -40.666,-40.666 0,-22.459 18.207,-40.666 40.666,-40.666 22.459,0 40.666,18.207 40.666,40.666 0,22.459 -18.206,40.666 -40.666,40.666 z M 341.91,330.654 c 0,5.106 -4.14,9.246 -9.246,9.246 H 286.73 c -5.106,0 -9.246,-4.14 -9.246,-9.246 v -84.168 c 0,-12.556 3.683,-55.021 -32.813,-55.021 -28.309,0 -34.051,29.066 -35.204,42.11 v 97.079 c 0,5.106 -4.139,9.246 -9.246,9.246 h -44.426 c -5.106,0 -9.246,-4.14 -9.246,-9.246 V 149.593 c 0,-5.106 4.14,-9.246 9.246,-9.246 h 44.426 c 5.106,0 9.246,4.14 9.246,9.246 v 15.655 c 10.497,-15.753 26.097,-27.912 59.312,-27.912 73.552,0 73.131,68.716 73.131,106.472 z"
     id="path2" /></g></svg>